<?xml version="1.0" standalone="no"?>
<!DOCTYPE svg PUBLIC "-//W3C//DTD SVG 20010904//EN"
 "http://www.w3.org/TR/2001/REC-SVG-20010904/DTD/svg10.dtd">
<svg version="1.0" xmlns="http://www.w3.org/2000/svg"
 width="400.000000pt" height="400.000000pt" viewBox="0 0 400.000000 400.000000"
 preserveAspectRatio="xMidYMid meet">

<g transform="translate(0.000000,400.000000) scale(0.100000,-0.100000)"
fill="#000000" stroke="none">
<path d="M1797 2975 c-313 -59 -559 -248 -702 -540 -75 -151 -98 -252 -99
-425 -1 -125 16 -264 33 -275 4 -2 39 17 77 42 134 90 396 200 604 253 25 6
53 13 63 16 15 5 17 -4 17 -84 0 -76 -3 -91 -17 -97 -63 -24 -247 -139 -298
-187 -93 -86 -144 -208 -126 -303 20 -109 112 -216 235 -275 144 -69 218 -85
401 -85 143 1 170 3 259 28 239 66 426 205 572 423 156 235 197 496 123 789
-26 101 -102 261 -162 341 -133 175 -333 309 -547 365 -110 28 -319 35 -433
14z m143 -505 l0 -401 53 8 c68 10 343 10 430 -1 l67 -8 0 -37 0 -38 -147 -6
c-145 -7 -244 -21 -350 -52 l-53 -16 0 -239 0 -240 -175 0 -175 0 0 128 0 129
50 27 50 27 0 -105 0 -106 75 0 75 0 0 615 0 615 -75 0 -75 0 0 -344 0 -343
-27 -6 c-16 -3 -36 -9 -45 -12 -17 -7 -18 16 -18 399 l0 406 170 0 170 0 0
-400z m690 -114 l0 -324 63 -21 c61 -21 173 -79 165 -86 -2 -3 -35 6 -74 19
-38 13 -86 26 -106 30 l-38 7 -2 -198 -3 -198 -163 -3 -162 -2 2 182 3 183 48
3 47 3 0 -135 0 -136 65 0 65 0 0 450 0 450 -65 0 -65 0 0 -230 0 -230 -27 0
c-16 0 -38 3 -50 6 l-23 6 0 274 0 274 160 0 160 0 0 -324z"/>
</g>
</svg>
